<svg width="82" height="84" viewBox="0 0 82 84" fill="none" xmlns="http://www.w3.org/2000/svg">
<g filter="url(#filter0_ddd)">
<circle cx="41" cy="35" r="33" fill="white"/>
</g>
<path d="M25.5379 17.5788C27.4905 15.6261 30.6564 15.6261 32.609 17.5788L57.6877 42.6575C59.6403 44.6101 59.6403 47.7759 57.6877 49.7285L56.462 50.9542C54.5094 52.9068 51.3436 52.9068 49.391 50.9542L24.3123 25.8755C22.3596 23.9229 22.3596 20.757 24.3123 18.8044L25.5379 17.5788Z" fill="#B71D1D"/>
<path d="M24.3122 49.7285C22.3596 47.7759 22.3596 44.6101 24.3122 42.6574L49.391 17.5787C51.3436 15.6261 54.5094 15.6261 56.462 17.5787L57.6877 18.8044C59.6403 20.757 59.6403 23.9228 57.6877 25.8754L32.609 50.9542C30.6563 52.9068 27.4905 52.9068 25.5379 50.9542L24.3122 49.7285Z" fill="#B71D1D"/>
<defs>
<filter id="filter0_ddd" x="0" y="0" width="82" height="84" filterUnits="userSpaceOnUse" color-interpolation-filters="sRGB">
<feFlood flood-opacity="0" result="BackgroundImageFix"/>
<feColorMatrix in="SourceAlpha" type="matrix" values="0 0 0 0 0 0 0 0 0 0 0 0 0 0 0 0 0 0 127 0"/>
<feOffset dy="1"/>
<feGaussianBlur stdDeviation="1"/>
<feColorMatrix type="matrix" values="0 0 0 0 0 0 0 0 0 0 0 0 0 0 0 0 0 0 0.5 0"/>
<feBlend mode="normal" in2="BackgroundImageFix" result="effect1_dropShadow"/>
<feColorMatrix in="SourceAlpha" type="matrix" values="0 0 0 0 0 0 0 0 0 0 0 0 0 0 0 0 0 0 127 0"/>
<feOffset dy="4"/>
<feGaussianBlur stdDeviation="3"/>
<feColorMatrix type="matrix" values="0 0 0 0 0 0 0 0 0 0 0 0 0 0 0 0 0 0 0.25 0"/>
<feBlend mode="normal" in2="effect1_dropShadow" result="effect2_dropShadow"/>
<feColorMatrix in="SourceAlpha" type="matrix" values="0 0 0 0 0 0 0 0 0 0 0 0 0 0 0 0 0 0 127 0"/>
<feOffset dy="8"/>
<feGaussianBlur stdDeviation="4"/>
<feColorMatrix type="matrix" values="0 0 0 0 0 0 0 0 0 0 0 0 0 0 0 0 0 0 0.1 0"/>
<feBlend mode="normal" in2="effect2_dropShadow" result="effect3_dropShadow"/>
<feBlend mode="normal" in="SourceGraphic" in2="effect3_dropShadow" result="shape"/>
</filter>
</defs>
</svg>
