<svg width="322" height="133" viewBox="0 0 322 133" fill="none" xmlns="http://www.w3.org/2000/svg">
<g filter="url(#filter0_ddd)">
<path fill-rule="evenodd" clip-rule="evenodd" d="M77.3307 104.13C71.7795 106.238 65.7927 107.417 59.5296 107.417C31.0712 107.417 8 83.8225 8 54.7083C8 25.6038 31.0712 2 59.5296 2C87.9832 2 111.054 25.6038 111.054 54.7083C111.054 56.9269 110.905 59.1071 110.633 61.249C111.87 62.6002 112.605 64.4402 112.605 66.5342V66.6492L113.172 66.6252C117.299 66.6252 120.419 69.8596 120.419 74.1481L120.428 102.127C120.428 111.298 114.746 117 105.592 117H93.2252C83.5283 117 80.296 110.263 78.7313 107.014L77.3307 104.13ZM105.592 112.208C112.235 112.208 115.744 108.538 115.744 102.127L115.734 74.1481C115.734 72.2985 114.451 71.4169 113.172 71.4169C111.879 71.4169 110.6 72.3033 110.6 73.9804V86.2471C110.6 87.0856 109.94 87.4881 109.284 87.4881C108.604 87.4881 107.92 87.0617 107.92 86.2471V66.5342C107.92 64.6367 106.571 63.7119 105.218 63.7119C103.845 63.7119 102.468 64.6654 102.468 66.5342V85.145C102.468 85.9308 101.854 86.319 101.231 86.319C100.608 86.319 99.9756 85.9165 99.9756 85.121V63.2854C99.9756 61.4119 98.6405 60.4583 97.104 60.4583C95.5956 60.4583 94.4244 61.3831 94.4244 63.2854L94.4151 85.3702C94.4151 86.2471 93.7452 86.6879 93.08 86.6879C92.4007 86.6879 91.7355 86.2471 91.7355 85.3702V66.8169C91.7355 65.0487 90.4051 64.1479 89.0888 64.1479C87.7912 64.1479 86.4982 65.02 86.4982 66.8169V89.7881C86.4982 90.526 85.9783 90.9094 85.4395 90.9094C85.046 90.9094 84.6338 90.7081 84.4136 90.296L80.7363 83.3769C80.0243 81.9777 78.7126 81.3692 77.415 81.3692C75.4943 81.3692 73.5831 82.6965 73.5831 84.776C73.5831 85.3079 73.7095 85.8925 73.9812 86.5106C74.5059 87.7804 81.275 101.422 82.9427 104.906C84.6994 108.557 86.9105 112.208 93.2252 112.208H105.592ZM106.173 58.9777C106.3 57.5737 106.37 56.1506 106.37 54.7083C106.37 28.2871 85.3552 6.79167 59.5296 6.79167C33.6992 6.79167 12.6845 28.2871 12.6845 54.7083C12.6845 81.1296 33.6992 102.625 59.5296 102.625C65.0385 102.625 70.3086 101.624 75.2133 99.8123L74.9978 99.3715C71.6343 92.505 70.0041 89.1796 69.7277 88.5183C69.1796 87.2965 68.8986 86.0362 68.8986 84.776C68.8986 80.2575 72.7211 76.5775 77.415 76.5775C79.0265 76.5775 80.5255 77.004 81.8137 77.7946V66.8169C81.8137 62.5619 84.943 59.3563 89.0888 59.3563L90.6159 59.5096C91.8245 57.1617 94.1949 55.6667 97.104 55.6667C99.8678 55.6667 102.191 57.0083 103.508 59.1167C104.056 58.9873 104.623 58.9202 105.218 58.9202L106.173 58.9777ZM47.5278 87.6846C38.2104 84.11 30.8089 76.5248 27.347 66.9798L22.967 67.5356C26.813 79.0787 35.7135 88.1925 46.9798 92.16L47.5278 87.6846ZM48.6428 78.566C43.1806 75.945 38.7725 71.4265 36.2101 65.8394L31.7411 66.4192C34.786 73.9804 40.6885 80.0179 48.09 83.1373L48.6428 78.566ZM59.5296 37.1421C69.0157 37.1421 76.7076 45.0052 76.7076 54.7083C76.7076 64.4115 69.0157 72.2794 59.5296 72.2794C50.0387 72.2794 42.3515 64.4115 42.3515 54.7083C42.3515 45.0052 50.0387 37.1421 59.5296 37.1421ZM59.5296 41.9337C52.6433 41.9337 47.036 47.6646 47.036 54.7083C47.036 61.7569 52.6433 67.4877 59.5296 67.4877C66.4205 67.4877 72.0231 61.7569 72.0231 54.7083C72.0231 47.6646 66.4205 41.9337 59.5296 41.9337ZM55.2385 54.7083C55.2385 57.1329 57.1592 59.1023 59.5296 59.1023C61.8999 59.1023 63.8252 57.1329 63.8252 54.7083C63.8252 52.2837 61.8999 50.3192 59.5296 50.3192C57.1592 50.3192 55.2385 52.2837 55.2385 54.7083ZM87.3227 43.0023C84.2778 35.4458 78.3659 29.4035 70.9738 26.289L70.4163 30.8602C75.8785 33.4765 80.2866 37.9902 82.8584 43.5773L87.3227 43.0023ZM91.6512 42.4513C88.1566 32.9781 80.7878 25.4552 71.5031 21.9094L72.0606 17.434C83.28 21.3727 92.1524 30.429 96.0312 41.8906L91.6512 42.4513Z" fill="white"/>
<path d="M136.016 34.3333H137.566C138.936 34.3333 139.979 33.8687 140.694 32.9394L152.163 17.8485C152.679 17.1414 153.255 16.6667 153.891 16.4242C154.546 16.1616 155.311 16.0303 156.184 16.0303H163.632L149.094 34.2424C148.638 34.8283 148.181 35.3131 147.724 35.697C147.267 36.0808 146.791 36.404 146.294 36.6667C146.93 36.9091 147.476 37.2626 147.933 37.7273C148.409 38.1717 148.816 38.7576 149.154 39.4848L159.312 60H151.656C150.663 60 149.948 59.8586 149.511 59.5758C149.075 59.2727 148.727 58.8586 148.469 58.3333L140.574 42.3636C140.316 41.798 139.949 41.404 139.472 41.1818C139.015 40.9596 138.36 40.8485 137.506 40.8485H135.242L132.918 60H124.339L129.612 16H138.251L136.016 34.3333Z" fill="white"/>
<path d="M184.805 36.9394C186.295 36.9394 187.566 36.7172 188.618 36.2727C189.671 35.8283 190.535 35.2222 191.21 34.4545C191.885 33.6869 192.382 32.7879 192.699 31.7576C193.017 30.7273 193.176 29.6364 193.176 28.4848C193.176 26.6869 192.63 25.2727 191.538 24.2424C190.465 23.2121 188.797 22.697 186.533 22.697H182.511L180.783 36.9394H184.805ZM187.337 16.0303C189.899 16.0303 192.084 16.3131 193.891 16.8788C195.718 17.4242 197.208 18.1919 198.36 19.1818C199.531 20.1515 200.385 21.3232 200.922 22.697C201.478 24.0505 201.756 25.5253 201.756 27.1212C201.756 28.7778 201.527 30.3434 201.071 31.8182C200.634 33.2929 199.988 34.6364 199.134 35.8485C198.28 37.0606 197.238 38.1313 196.006 39.0606C194.795 39.9899 193.405 40.7374 191.836 41.303C192.352 41.6061 192.819 41.9798 193.236 42.4242C193.673 42.8687 194.05 43.404 194.368 44.0303L201.428 60H193.653C192.163 60 191.19 59.4343 190.733 58.303L185.163 44.6061C184.924 44.0808 184.626 43.697 184.269 43.4545C183.911 43.2121 183.375 43.0909 182.66 43.0909H180.039L177.983 60H169.403L174.444 17.9697L171.754 16.0303H177.131H187.337Z" fill="white"/>
<path d="M269.783 16.0303L252.118 60H244.313L239.844 30.7576C239.765 30.3535 239.695 29.899 239.636 29.3939C239.576 28.8889 239.526 28.3636 239.487 27.8182C239.089 28.9091 238.722 29.8889 238.384 30.7576L226.915 60H219.14L212.109 16.0303H218.872C219.626 16.0303 220.222 16.2121 220.659 16.5758C221.116 16.9192 221.394 17.3838 221.493 17.9697L224.919 43.4848C224.979 44.1919 225.038 44.9394 225.098 45.7273C225.157 46.5152 225.207 47.3434 225.247 48.2121C225.525 47.3434 225.803 46.5152 226.081 45.7273C226.379 44.9192 226.667 44.1717 226.945 43.4848L236.835 17.9697C236.954 17.7273 237.103 17.4949 237.282 17.2727C237.481 17.0303 237.709 16.8182 237.967 16.6364C238.245 16.4545 238.543 16.3131 238.861 16.2121C239.179 16.0909 239.516 16.0303 239.874 16.0303H241.9C242.654 16.0303 243.24 16.2222 243.657 16.6061C244.094 16.9697 244.392 17.4242 244.551 17.9697L248.424 43.4848C248.523 44.1313 248.622 44.8384 248.722 45.6061C248.821 46.3737 248.9 47.1818 248.96 48.0303C249.198 47.1818 249.437 46.3838 249.675 45.6364C249.933 44.8687 250.171 44.1515 250.39 43.4848L259.863 17.9697C260.022 17.4646 260.399 17.0202 260.995 16.6364C261.591 16.2323 262.246 16.0303 262.961 16.0303H269.783Z" fill="white"/>
<path d="M314 35.1212C314 37.5253 313.732 39.8182 313.196 42C312.679 44.1616 311.925 46.1717 310.932 48.0303C309.958 49.8687 308.777 51.5253 307.387 53C305.996 54.4747 304.427 55.7374 302.68 56.7879C300.952 57.8182 299.065 58.6162 297.02 59.1818C294.994 59.7273 292.859 60 290.615 60H275.243L280.336 18L277.827 16L282.716 16.0303H295.947C298.728 16.0303 301.23 16.5151 303.454 17.4848C305.698 18.4343 307.595 19.7576 309.144 21.4545C310.713 23.1515 311.915 25.1717 312.749 27.5152C313.583 29.8384 314 32.3737 314 35.1212ZM305.152 35.3333C305.152 33.4343 304.924 31.7172 304.467 30.1818C304.03 28.6465 303.385 27.3434 302.531 26.2727C301.677 25.1818 300.624 24.3434 299.373 23.7576C298.142 23.1717 296.722 22.8788 295.113 22.8788H288.41L284.776 53.1212H291.449C293.534 53.1212 295.421 52.7071 297.109 51.8788C298.797 51.0505 300.237 49.8687 301.428 48.3333C302.62 46.798 303.534 44.9394 304.169 42.7576C304.825 40.5556 305.152 38.0808 305.152 35.3333Z" fill="white"/>
<path d="M146.384 72.1207C146.236 72.319 146.093 72.47 145.955 72.5738C145.816 72.6682 145.646 72.7154 145.443 72.7154C145.249 72.7154 145.05 72.6446 144.847 72.503C144.644 72.352 144.409 72.1868 144.142 72.0074C143.874 71.828 143.565 71.6676 143.214 71.526C142.864 71.3749 142.439 71.2994 141.941 71.2994C141.47 71.2994 141.055 71.3702 140.695 71.5118C140.344 71.644 140.049 71.8328 139.809 72.0782C139.569 72.3237 139.389 72.6116 139.269 72.942C139.149 73.2724 139.089 73.6264 139.089 74.004C139.089 74.41 139.195 74.7498 139.408 75.0236C139.62 75.2974 139.897 75.5381 140.238 75.7458C140.589 75.9535 140.986 76.1423 141.429 76.3122C141.881 76.4727 142.338 76.6473 142.799 76.8361C143.26 77.025 143.712 77.2421 144.155 77.4875C144.608 77.733 145.004 78.0398 145.346 78.408C145.696 78.7667 145.978 79.2009 146.19 79.7107C146.402 80.2205 146.508 80.8388 146.508 81.5657C146.508 82.5759 146.333 83.5341 145.983 84.4403C145.641 85.3372 145.147 86.1254 144.501 86.8051C143.865 87.4754 143.09 88.0088 142.176 88.4053C141.262 88.8018 140.234 89 139.089 89C138.508 89 137.927 88.9339 137.345 88.8018C136.773 88.6696 136.229 88.4855 135.712 88.2495C135.195 88.0135 134.715 87.7303 134.272 87.3999C133.829 87.0695 133.451 86.7013 133.137 86.2953L134.563 84.3554C134.674 84.2232 134.812 84.1099 134.978 84.0155C135.154 83.9117 135.329 83.8597 135.504 83.8597C135.744 83.8597 135.98 83.9589 136.21 84.1571C136.45 84.3459 136.718 84.5536 137.013 84.7802C137.318 85.0067 137.673 85.2191 138.079 85.4174C138.494 85.6062 139.002 85.7006 139.601 85.7006C140.552 85.7006 141.29 85.4316 141.816 84.8935C142.351 84.3459 142.619 83.5718 142.619 82.5711C142.619 82.118 142.513 81.7498 142.301 81.4666C142.088 81.174 141.812 80.9285 141.47 80.7303C141.129 80.532 140.736 80.3574 140.294 80.2063C139.86 80.0553 139.412 79.8948 138.951 79.7249C138.49 79.5455 138.037 79.3425 137.594 79.116C137.161 78.88 136.773 78.5779 136.432 78.2097C136.09 77.8415 135.813 77.3931 135.601 76.8645C135.389 76.3264 135.283 75.6655 135.283 74.882C135.283 73.9852 135.444 73.1261 135.767 72.3048C136.1 71.474 136.57 70.7424 137.179 70.1099C137.788 69.468 138.526 68.9582 139.394 68.5806C140.261 68.203 141.235 68.0142 142.314 68.0142C142.868 68.0142 143.403 68.0755 143.92 68.1982C144.446 68.321 144.935 68.4909 145.387 68.708C145.839 68.9157 146.25 69.1659 146.619 69.4585C146.998 69.7512 147.321 70.0674 147.588 70.4073L146.384 72.1207Z" fill="white"/>
<path d="M159.494 85.5307C160.103 85.5307 160.661 85.4127 161.168 85.1767C161.676 84.9407 162.119 84.6055 162.497 84.1713C162.876 83.7276 163.189 83.1989 163.438 82.5853C163.688 81.9622 163.854 81.2731 163.937 80.5179L165.418 68.2266H169.418L167.951 80.5179C167.803 81.7451 167.485 82.878 166.996 83.9164C166.507 84.9548 165.879 85.8517 165.113 86.6069C164.347 87.3527 163.452 87.938 162.428 88.3628C161.413 88.7876 160.296 89 159.078 89C157.86 89 156.79 88.7876 155.867 88.3628C154.953 87.938 154.201 87.3527 153.611 86.6069C153.029 85.8517 152.619 84.9548 152.379 83.9164C152.148 82.878 152.107 81.7451 152.254 80.5179L153.694 68.2266H157.708L156.241 80.5179C156.148 81.2731 156.153 81.9622 156.255 82.5853C156.356 83.1989 156.545 83.7276 156.822 84.1713C157.099 84.6055 157.459 84.9407 157.902 85.1767C158.354 85.4127 158.885 85.5307 159.494 85.5307Z" fill="white"/>
<path d="M180.764 77.9973C181.456 77.9973 182.046 77.8935 182.535 77.6858C183.025 77.4781 183.426 77.1949 183.74 76.8361C184.053 76.4774 184.284 76.0573 184.432 75.5759C184.579 75.0944 184.653 74.5846 184.653 74.0465C184.653 73.2063 184.399 72.5455 183.892 72.0641C183.394 71.5826 182.619 71.3419 181.567 71.3419H179.698L178.895 77.9973H180.764ZM181.94 68.2266C183.131 68.2266 184.146 68.3587 184.985 68.6231C185.834 68.878 186.527 69.2367 187.062 69.6993C187.606 70.1524 188.003 70.6999 188.252 71.3419C188.51 71.9744 188.64 72.6635 188.64 73.4093C188.64 74.1834 188.534 74.915 188.321 75.6042C188.118 76.2933 187.818 76.9211 187.422 77.4875C187.025 78.0539 186.54 78.5543 185.968 78.9885C185.405 79.4228 184.759 79.7721 184.03 80.0364C184.27 80.178 184.487 80.3527 184.681 80.5603C184.884 80.768 185.059 81.0182 185.207 81.3109L188.487 88.7734H184.875C184.183 88.7734 183.73 88.5091 183.518 87.9804L180.93 81.5799C180.819 81.3345 180.681 81.1551 180.515 81.0418C180.348 80.9285 180.099 80.8719 179.767 80.8719H178.549L177.594 88.7734H173.608L175.965 69L175.08 68.2266H181.94Z" fill="white"/>
<path d="M203.234 78.3796H209.699L208.674 86.791C208.158 87.178 207.627 87.5084 207.082 87.7822C206.538 88.056 205.961 88.2873 205.352 88.4761C204.752 88.6554 204.12 88.7876 203.456 88.8726C202.792 88.9575 202.081 89 201.324 89C200.088 89 198.962 88.7734 197.947 88.3203C196.941 87.8577 196.078 87.2205 195.359 86.4086C194.639 85.5873 194.08 84.6197 193.684 83.5057C193.287 82.3918 193.088 81.1787 193.088 79.8665C193.088 78.7148 193.213 77.6244 193.462 76.5954C193.711 75.557 194.067 74.5988 194.528 73.7208C194.999 72.8429 195.557 72.0546 196.203 71.356C196.858 70.648 197.582 70.0486 198.376 69.5577C199.179 69.0573 200.046 68.675 200.978 68.4107C201.91 68.1369 202.884 68 203.899 68C204.729 68 205.481 68.0802 206.155 68.2407C206.838 68.3918 207.452 68.5995 207.996 68.8638C208.54 69.1187 209.025 69.4208 209.449 69.7701C209.883 70.1099 210.266 70.4686 210.598 70.8463L209.297 72.5172C209.085 72.8193 208.831 73.0034 208.536 73.0695C208.241 73.1355 207.936 73.0647 207.622 72.857C207.327 72.6588 207.041 72.4747 206.764 72.3048C206.496 72.1254 206.206 71.9744 205.892 71.8517C205.588 71.7289 205.251 71.6345 204.882 71.5684C204.513 71.4929 204.088 71.4552 203.608 71.4552C202.667 71.4552 201.8 71.6534 201.006 72.0499C200.222 72.4464 199.543 73.0081 198.971 73.735C198.408 74.4525 197.97 75.321 197.656 76.3405C197.342 77.3601 197.186 78.4882 197.186 79.7249C197.186 80.6689 197.301 81.5185 197.532 82.2738C197.772 83.0196 198.099 83.6521 198.514 84.1713C198.939 84.6905 199.446 85.0917 200.037 85.3749C200.637 85.6487 201.297 85.7856 202.016 85.7856C202.681 85.7856 203.267 85.7242 203.774 85.6015C204.291 85.4693 204.785 85.29 205.255 85.0634L205.684 81.3958H203.691C203.442 81.3958 203.253 81.3297 203.124 81.1976C202.995 81.0654 202.944 80.8908 202.971 80.6736L203.234 78.3796Z" fill="white"/>
<path d="M220.765 71.441L220.115 76.8786H226.164L225.762 79.9798H219.741L219.063 85.559H226.883L226.496 88.7734H214.647L217.125 68.2266H228.946L228.544 71.441H220.765Z" fill="white"/>
</g>
<defs>
<filter id="filter0_ddd" x="0" y="0" width="322" height="133" filterUnits="userSpaceOnUse" color-interpolation-filters="sRGB">
<feFlood flood-opacity="0" result="BackgroundImageFix"/>
<feColorMatrix in="SourceAlpha" type="matrix" values="0 0 0 0 0 0 0 0 0 0 0 0 0 0 0 0 0 0 127 0"/>
<feOffset dy="1"/>
<feGaussianBlur stdDeviation="1"/>
<feColorMatrix type="matrix" values="0 0 0 0 0 0 0 0 0 0 0 0 0 0 0 0 0 0 0.5 0"/>
<feBlend mode="normal" in2="BackgroundImageFix" result="effect1_dropShadow"/>
<feColorMatrix in="SourceAlpha" type="matrix" values="0 0 0 0 0 0 0 0 0 0 0 0 0 0 0 0 0 0 127 0"/>
<feOffset dy="4"/>
<feGaussianBlur stdDeviation="3"/>
<feColorMatrix type="matrix" values="0 0 0 0 0 0 0 0 0 0 0 0 0 0 0 0 0 0 0.25 0"/>
<feBlend mode="normal" in2="effect1_dropShadow" result="effect2_dropShadow"/>
<feColorMatrix in="SourceAlpha" type="matrix" values="0 0 0 0 0 0 0 0 0 0 0 0 0 0 0 0 0 0 127 0"/>
<feOffset dy="8"/>
<feGaussianBlur stdDeviation="4"/>
<feColorMatrix type="matrix" values="0 0 0 0 0 0 0 0 0 0 0 0 0 0 0 0 0 0 0.1 0"/>
<feBlend mode="normal" in2="effect2_dropShadow" result="effect3_dropShadow"/>
<feBlend mode="normal" in="SourceGraphic" in2="effect3_dropShadow" result="shape"/>
</filter>
</defs>
</svg>
